<svg width="109" height="100" viewBox="0 0 109 100" fill="none" xmlns="http://www.w3.org/2000/svg">
<path d="M79.345 61.1125C82.1748 59.8039 86.1018 58.6711 86.1018 58.6711C86.1018 58.6711 74.9271 60.0383 63.81 60.6633C50.2098 61.425 35.5988 61.5812 28.2645 60.9172C10.9104 59.3547 37.7933 55.0383 37.7933 55.0383C37.7933 55.0383 27.3693 54.5696 14.5198 58.7492C-0.639777 63.7101 52.0578 65.9757 79.345 61.1125ZM54.6854 54.843C49.1991 46.5033 30.69 39.1792 54.6854 26.3668C84.6176 10.3905 69.2675 0 69.2675 0C75.4757 16.5037 47.4377 21.5036 37.3025 31.7574C30.4012 38.769 40.6809 46.2884 54.6854 54.843ZM87.7766 20.4294C87.8055 20.4294 37.187 28.984 61.3556 47.8119C68.4879 53.3587 59.4787 58.3586 59.4787 58.3586C59.4787 58.3586 77.5836 52.0306 69.2675 44.1205C61.5 36.7378 55.5517 33.066 87.7766 20.4294ZM86.0152 73.2608C85.8574 73.4468 85.6631 73.6177 85.4377 73.7686C122.485 67.1866 108.856 50.5462 91.155 54.7649C90.199 55.0025 89.373 55.4318 88.7872 55.9954C89.8209 55.7423 90.8831 55.5464 91.9635 55.4094C100.915 54.1399 113.764 63.5148 86.0152 73.2608ZM99.6328 85.4286C99.6328 85.4286 103.82 87.7527 95.0416 89.5691C78.3228 92.9871 25.5098 94.0222 10.8411 89.7058C5.55688 88.1629 15.4611 85.995 18.5797 85.5457C21.8137 85.077 23.6906 85.1551 23.6906 85.1551C17.8289 82.3622 -14.2228 90.6433 7.4049 93.0066C66.38 99.4909 114.937 90.0965 99.6328 85.4286ZM35.0791 77.3427C12.3541 81.6395 48.9104 90.5066 77.8435 82.1278C75.0217 81.3863 72.2977 80.4847 69.7006 79.4325C56.7933 81.0927 50.8161 81.2099 39.0927 80.3114C29.4195 79.5693 35.0791 77.3427 35.0791 77.3427ZM86.997 96.3269C64.272 99.2174 36.2341 98.8854 19.6307 97.03C19.6307 97.0104 23.038 98.9245 40.5365 99.6862C67.1596 100.839 108.047 99.0417 109 90.5261C109 90.5261 107.152 93.7488 86.997 96.3269ZM74.4073 68.9444C57.3131 71.1709 47.4088 71.1123 34.9058 70.2334C25.2326 69.5499 31.5563 66.3858 31.5563 66.3858C6.49244 72.0108 45.4742 78.3779 80.5 71.4444C78.2363 70.9037 76.162 70.0526 74.4073 68.9444Z" fill="#0FF707"/>
</svg>
