<svg width="109" height="100" viewBox="0 0 109 100" fill="none" xmlns="http://www.w3.org/2000/svg">
<path d="M54.4756 100C52.8411 100 51.1822 99.6428 49.7428 98.9682L34.6907 91.7254C32.4463 90.6935 33.5441 90.3363 34.276 90.1379C37.2766 89.2847 37.8865 89.1061 41.0824 87.6178C41.4239 87.4591 41.863 87.5186 42.2046 87.6972L53.7681 93.2731C54.1829 93.4716 54.7684 93.4716 55.1587 93.2731L100.218 72.1203C100.632 71.9218 100.901 71.525 100.901 71.1281V28.8223C100.901 28.4056 100.632 28.0286 100.193 27.8103L55.1587 6.67725C54.744 6.47882 54.1829 6.47882 53.7681 6.67725L8.75806 27.8301C8.31893 28.0286 8.05058 28.4254 8.05058 28.8421V71.1281C8.05058 71.525 8.31893 71.9218 8.75806 72.1004L21.1023 77.8946C27.8111 80.6132 31.9096 77.4184 31.9096 74.1839V32.4338C31.9096 31.8385 32.4951 31.3821 33.2269 31.3821H38.9355C39.643 31.3821 40.2529 31.8385 40.2529 32.4338V74.2038C40.2529 81.4664 35.3738 85.6335 26.9085 85.6335C24.2981 85.6335 22.2489 85.6335 16.5403 83.3317L4.73277 77.7954C1.80528 76.4262 0 73.8665 0 71.1082V28.8223C0 26.0839 1.80528 23.5043 4.73277 22.1351L49.7428 0.98224C52.5971 -0.327413 56.3785 -0.327413 59.2084 0.98224L104.267 22.155C107.195 23.5242 109 26.0839 109 28.8421V71.1281C109 73.8665 107.195 76.4262 104.267 77.8153L59.2084 98.9682C57.769 99.6428 56.1345 100 54.4756 100ZM90.8496 58.3094C90.8496 50.3919 84.2628 48.2885 70.4304 46.8003C56.4273 45.2922 55.0123 44.5183 55.0123 41.8593C55.0123 39.6567 56.2077 36.7199 66.5759 36.7199C75.8218 36.7199 79.2372 38.3471 80.6522 43.4269C80.7742 43.9032 81.3109 44.2603 81.9208 44.2603H87.7757C88.1417 44.2603 88.4832 44.1413 88.7272 43.923C88.9711 43.7047 89.0931 43.4071 89.0687 43.1094C88.1661 34.3586 81.0181 30.2907 66.5759 30.2907C53.7193 30.2907 46.0591 34.6959 46.0591 42.0974C46.0591 50.1141 53.6949 52.3365 66.0148 53.3287C80.7742 54.4995 81.9208 56.2655 81.9208 58.6269C81.9208 62.7146 77.8711 64.4608 68.3812 64.4608C56.4517 64.4608 53.8413 62.02 52.9631 57.1981C52.8655 56.6822 52.3288 56.3052 51.6701 56.3052H45.8395C45.1077 56.3052 44.5466 56.7814 44.5466 57.3569C44.5466 63.5281 48.6694 70.89 68.4055 70.89C82.6526 70.8701 90.8496 66.2863 90.8496 58.3094Z" fill="#0FF707"/>
</svg>
