<svg width="109" height="100" viewBox="0 0 109 100" fill="none" xmlns="http://www.w3.org/2000/svg">
<path d="M89.0309 32.4062C87.8813 32.0044 86.7316 31.625 85.582 31.2679C85.7736 30.442 85.9439 29.6162 86.1143 28.7903C88.7328 15.4875 87.0084 4.79606 81.1965 1.26946C75.5975 -2.10089 66.4645 1.40338 57.225 9.84043C56.3096 10.6663 55.4154 11.5368 54.5639 12.4073C53.9891 11.8269 53.393 11.2466 52.7969 10.6886C43.1104 1.67123 33.4025 -2.12321 27.5906 1.4257C22.0129 4.81838 20.3523 14.8848 22.6941 27.4734C22.9283 28.7234 23.1838 29.951 23.4818 31.2009C22.1193 31.6027 20.7781 32.0491 19.5221 32.5178C8.15371 36.647 0 43.1645 0 49.9053C0 56.8692 8.68594 63.8554 20.5014 68.0962C21.4594 68.4311 22.4174 68.7659 23.3967 69.056C23.0773 70.3952 22.8006 71.7121 22.5451 73.0737C20.3098 85.4614 22.0555 95.2823 27.6332 98.6527C33.3813 102.135 43.0465 98.5634 52.4562 89.9254C53.2014 89.2335 53.9465 88.5193 54.6916 87.7604C55.6283 88.7201 56.6076 89.6353 57.5869 90.5281C66.6986 98.7419 75.7039 102.068 81.2604 98.6973C87.0084 95.2153 88.8818 84.6579 86.4549 71.8014C86.2633 70.8193 86.0504 69.8149 85.8162 68.7882C86.4975 68.5873 87.1574 68.3641 87.8174 68.1409C100.101 63.8777 109 56.9808 109 49.9053C109 43.1422 100.612 36.5801 89.0309 32.4062ZM60.2268 13.4563C68.1463 6.22456 75.5336 3.38988 78.8973 5.42103C82.4951 7.58609 83.8789 16.3356 81.6223 27.8305C81.4732 28.5894 81.3242 29.326 81.1326 30.0626C76.4064 28.9466 71.6164 28.143 66.8051 27.6966C64.0375 23.5451 61.0145 19.5721 57.7359 15.8446C58.5662 15.0187 59.3752 14.2375 60.2268 13.4563ZM35.5953 61.4895C36.6811 63.4313 37.7881 65.3732 38.959 67.2704C35.6379 66.891 32.3381 66.3329 29.0809 65.5964C30.0176 62.3823 31.1885 59.0566 32.551 55.6639C33.5303 57.6281 34.5309 59.5699 35.5953 61.4895ZM29.1447 34.6382C32.2104 33.924 35.4676 33.3436 38.8525 32.8972C37.7242 34.7498 36.6172 36.647 35.574 38.5666C34.5309 40.4638 33.509 42.4057 32.551 44.3698C31.2098 41.0441 30.0814 37.7854 29.1447 34.6382ZM34.9779 50.0169C36.383 46.9367 37.9158 43.9234 39.5338 40.9548C41.1518 37.9862 42.8975 35.1069 44.7283 32.2723C47.9217 32.0267 51.1789 31.8928 54.5 31.8928C57.8211 31.8928 61.0996 32.0267 64.2717 32.2723C66.0812 35.0846 67.8057 37.9639 69.4449 40.9102C71.0842 43.8565 72.617 46.8697 74.0646 49.9276C72.6383 53.0078 71.1055 56.0433 69.4662 59.0342C67.8482 62.0028 66.1238 64.8821 64.3143 67.7391C61.1422 67.9846 57.8424 68.0962 54.5 68.0962C51.1576 68.0962 47.9217 67.9846 44.7922 67.7838C42.94 64.9491 41.1943 62.0475 39.5551 59.0789C37.9158 56.1103 36.4043 53.0971 34.9779 50.0169ZM73.426 61.4448C74.5117 59.4806 75.5336 57.4941 76.5342 55.4853C77.8967 58.7218 79.0889 62.0028 80.132 65.3732C76.8322 66.1544 73.4898 66.757 70.1262 67.1588C71.2758 65.2839 72.3615 63.3644 73.426 61.4448ZM76.4916 44.3698C75.491 42.4057 74.4691 40.4415 73.4047 38.5219C72.3615 36.6247 71.2758 34.7498 70.1475 32.8972C73.575 33.3436 76.8535 33.9463 79.9191 34.6829C78.9398 37.9862 77.7902 41.2004 76.4916 44.3698ZM54.5426 19.2596C56.7779 21.8041 58.8855 24.4825 60.8441 27.2502C56.6289 27.0493 52.3924 27.0493 48.1771 27.2502C50.2635 24.3709 52.4137 21.6925 54.5426 19.2596ZM29.8473 5.57727C33.4238 3.38988 41.3646 6.51472 49.7313 14.2822C50.2635 14.7732 50.7957 15.3089 51.3492 15.8446C48.0494 19.5721 45.0051 23.5451 42.2162 27.6966C37.4049 28.143 32.6361 28.9242 27.91 30.0179C27.6332 28.8796 27.399 27.7189 27.1648 26.5583C25.1637 15.7553 26.4836 7.60841 29.8473 5.57727ZM24.6314 64.4134C23.7373 64.1456 22.8645 63.8554 21.9916 63.5429C17.457 62.0475 12.3051 59.6815 8.57949 56.579C6.4293 55.0166 4.98164 52.606 4.57715 49.9053C4.57715 45.8207 11.3045 40.5977 21.0123 37.0488C22.2258 36.6024 23.4605 36.2006 24.6953 35.8212C26.143 40.6647 27.8887 45.4189 29.9111 50.0169C27.8674 54.6818 26.1004 59.503 24.6314 64.4134ZM49.4545 86.2872C45.9418 89.6576 41.8756 92.336 37.4475 94.1663C35.0844 95.3493 32.3594 95.4609 29.9324 94.4564C26.5475 92.403 25.1424 84.5239 27.0584 73.9218C27.2926 72.6719 27.548 71.422 27.8461 70.1944C32.6148 71.2657 37.4262 72.0023 42.3014 72.3817C45.1115 76.5556 48.1984 80.5509 51.4982 84.3007C50.817 84.9927 50.1357 85.6623 49.4545 86.2872ZM54.6703 80.8634C52.4988 78.4082 50.3273 75.6851 48.2197 72.7612C50.2635 72.8505 52.3711 72.8951 54.5 72.8951C56.6928 72.8951 58.843 72.8505 60.9719 72.7389C59.0133 75.5735 56.9057 78.2743 54.6703 80.8634ZM82.4951 87.5595C82.3035 90.2826 81.0262 92.8271 78.9824 94.5457C75.5975 96.5992 68.3805 93.9208 60.5887 86.9122C59.6945 86.1087 58.8004 85.2382 57.885 84.3454C61.1422 80.5733 64.1439 76.5779 66.8689 72.3817C71.7441 71.9576 76.598 71.1764 81.3881 70.0381C81.601 70.9532 81.7926 71.8684 81.9629 72.7612C83.0061 77.5823 83.1764 82.6044 82.4951 87.5595ZM86.3697 63.5652C85.7736 63.7661 85.1775 63.967 84.5602 64.1456C83.0699 59.2798 81.2391 54.5255 79.1314 49.9053C81.1752 45.3519 82.8996 40.6647 84.3473 35.8658C85.4543 36.2006 86.5188 36.5578 87.5406 36.9149C97.4613 40.4861 104.423 45.7983 104.423 49.8606C104.423 54.2354 96.993 59.8824 86.3697 63.5652ZM54.5 60.2172C59.8861 60.2172 64.2504 55.6416 64.2504 49.9945C64.2504 44.3475 59.8861 39.7719 54.5 39.7719C49.1139 39.7719 44.7496 44.3475 44.7496 49.9945C44.7496 55.6416 49.1139 60.2172 54.5 60.2172Z" fill="#0072FF"/>
</svg>
